<svg xmlns="http://www.w3.org/2000/svg" viewBox="0 0 100 100" fill="none">
  <defs>
    <linearGradient id="csvecnaGrad" x1="0%" y1="0%" x2="100%" y2="100%">
      <stop offset="0%" stop-color="#34D399" />
      <stop offset="50%" stop-color="#10B981" />
      <stop offset="100%" stop-color="#059669" />
    </linearGradient>
    <linearGradient id="csvecnaBg" x1="0%" y1="0%" x2="100%" y2="100%">
      <stop offset="0%" stop-color="#0F172A" />
      <stop offset="100%" stop-color="#1E293B" />
    </linearGradient>
  </defs>
  <rect width="100" height="100" rx="26" fill="url(#csvecnaBg)" />
  <path
    d="M50 16C31.222 16 16 31.222 16 50C16 56.4 17.766 62.4 20.85 67.55L17.5 82.5L32.85 79.25C37.85 82.15 43.7 84 50 84C68.778 84 84 68.778 84 50C84 31.222 68.778 16 50 16Z"
    stroke="url(#csvecnaGrad)"
    stroke-width="5"
    stroke-linecap="round"
    stroke-linejoin="round"
  />
  <path
    d="M32 34L50 72L68 34H58L50 54L42 34H32Z"
    fill="url(#csvecnaGrad)"
  />
  <circle cx="50" cy="40" r="5" fill="#A7F3D0" />
</svg>
